<?xml version="1.0" encoding="utf-8"?>
<!-- Generator: Adobe Illustrator 24.1.2, SVG Export Plug-In . SVG Version: 6.00 Build 0)  -->
<svg version="1.1" id="レイヤー_1" xmlns="http://www.w3.org/2000/svg" xmlns:xlink="http://www.w3.org/1999/xlink" x="0px"
	 y="0px" viewBox="0 0 300 300" style="enable-background:new 0 0 300 300;" xml:space="preserve">
<g>
	<g>
		<path d="M170.47,14.31c-0.66,3.33,0.17,5.95,1.1,8.71c0.81,2.39,1.08,5.15,0.84,7.67c-0.33,3.47,0.38,6.65,1.32,9.88
			c0.45,1.53,0.64,3.14,1.16,4.64c0.38,1.09,1,2.13,1.7,3.05c0.57,0.75,1.4,1.3,2.14,1.91c1.23,1,1.82,2.32,1.92,3.86
			c0.1,1.55,0.49,2.95,1.34,4.29c1.37,2.16,1.4,4.65,0.86,6.98c-0.97,4.22-1.04,8.35-0.06,12.57c0.37,1.57,0.41,3.26,0.36,4.88
			c-0.07,2.19,0.59,4.16,1.81,5.84c1.78,2.45,3.86,4.68,5.71,7.07c0.69,0.9,1.17,1.98,1.66,3.02c1.23,2.6,1.7,5.35,1.89,8.23
			c0.21,3.3,0.71,6.58,1.23,9.85c0.69,4.26,1.53,8.49,2.29,12.74c0.37,2.04,0.81,4.07,1.02,6.13c0.33,3.17-0.01,6.32-1.04,9.35
			c-0.55,1.62-1.19,3.24-2.05,4.7c-1.51,2.57-1.06,4.87,0.52,7.16c0.43,0.62,0.83,1.27,1.25,1.91c2.11,3.21,1.81,6.63,0.74,10.03
			c-1.77,5.6-5.43,9.98-9.46,14.09c-0.78,0.8-1.61,1.59-2.2,2.52c-0.38,0.6-0.41,1.44-0.52,2.19c-0.07,0.49,0.1,1.04-0.03,1.51
			c-0.48,1.72-0.98,3.45-1.62,5.12c-0.32,0.85-0.82,1.71-1.45,2.37c-1.02,1.06-2.41,1.79-3.3,2.94c-1.36,1.75-2.58,3.65-3.58,5.63
			c-1.09,2.16-2.74,3.58-4.8,4.65c-1.31,0.68-2.7,1.25-3.93,2.04c-2.96,1.91-4.83,4.66-6.05,7.95c-0.94,2.55-2.16,4.99-3.09,7.54
			c-0.92,2.54-1.68,5.15-2.44,7.75c-0.76,2.6-1.41,5.23-2.14,7.84c-0.74,2.65-1.39,5.34-2.28,7.94c-1.62,4.71-3.09,9.47-6.11,13.6
			c-1.29,1.75-1.94,3.99-2.77,6.06c-0.71,1.78-1.58,3.4-3.12,4.59c-0.31,0.24-0.6,0.54-0.8,0.88c-2.3,3.97-5.59,6.94-9.44,9.33
			c-4.1,2.55-8.21,5.09-12.34,7.58c-2.57,1.55-5.41,2.32-8.4,2.54c-0.83,0.06-1.69,0.08-2.5,0.26c-5.09,1.17-9.16-2.85-7.99-7.92
			c0.34-1.47,1.12-2.62,2.07-3.82c2.38-2.99,5.77-4.65,8.56-7.06c2.39-2.06,4.91-3.97,6.58-6.87c1.78-3.09,4.17-5.82,6.28-8.72
			c0.37-0.51,0.69-1.08,0.95-1.65c1.71-3.74,3.45-7.48,5.09-11.25c0.54-1.23,0.79-2.59,1.23-3.87c0.53-1.51,0.96-3.07,1.72-4.46
			c2.71-4.98,3.9-10.4,4.54-15.92c0.31-2.7-0.19-5.49-0.33-8.24c-0.02-0.44-0.17-0.91-0.07-1.31c0.73-2.73-0.73-4.85-2.1-6.87
			c-1.43-2.1-3.1-4.08-4.89-5.88c-1.18-1.19-2.76-1.97-4.16-2.94c-3.11-2.16-5.89-4.53-6.28-8.69c-0.19-1.99-0.49-3.97-0.87-5.93
			c-0.34-1.7-0.2-3.27,0.8-4.7c1.42-2.04,1.41-4.08,0.49-6.35c-1.61-3.96-3.05-7.98-4.52-11.99c-0.23-0.62-0.35-1.32-0.36-1.99
			c-0.02-4.75,0.01-9.5,0.03-14.25c0.01-2.48,0.02-4.95,0.06-7.43c0.01-0.55,0.11-1.11,0.24-1.66c1.02-4.23,1.9-8.49,3.12-12.66
			c1.28-4.37,2.91-8.63,4.33-12.96c1.18-3.6,2.28-7.23,3.44-10.84c0.22-0.68,0.42-1.42,0.83-1.98c2.38-3.19,2.3-6.91,2.29-10.58
			c-0.01-4.72-0.37-9.44-0.19-14.14c0.12-3.05,0.92-6.07,1.43-9.1c0.05-0.31,0.19-0.63,0.38-0.87c2.16-2.81,1.98-5.96,1.33-9.17
			c-0.32-1.56-0.65-3.12-1.01-4.68c-0.47-2.01-1.19-3.88-2.64-5.44c-0.38-0.41-0.59-1.04-0.72-1.6c-0.31-1.38-0.94-2.55-2.04-3.44
			c-2.34-1.91-3.18-4.47-3.02-7.35c0.06-0.99,0.64-1.95,0.94-2.93c0.24-0.78,0.52-1.58,0.56-2.39c0.07-1.14,0.49-1.85,1.62-2.22
			c1.55-0.51,3.11-1.05,4.57-1.76c0.73-0.35,1.61-1.01,1.82-1.71c1.03-3.47,3.79-4.14,6.8-4.47c1.79-0.19,3.59-0.23,5.38-0.43
			c0.44-0.05,0.98-0.38,1.21-0.75c0.47-0.73,0.76-1.58,1.11-2.39c0.42-0.96,0.93-1.15,1.73-0.47c0.46,0.4,0.81,0.97,1.1,1.52
			c0.68,1.29,1.38,2.33,3.17,2.05c2.35-0.37,4.8,0.52,7.12-0.46c0.8-0.34,1.66-0.7,2.27-1.29c1.6-1.54,3.06-3.23,4.61-4.83
			c0.47-0.48,0.97-0.98,1.55-1.29c1.65-0.87,3.37-0.15,3.72,1.64C170.1,10.82,170.26,12.78,170.47,14.31z"/>
	</g>
</g>
</svg>
